<svg xmlns="http://www.w3.org/2000/svg" width="181.37" height="230.283" viewBox="0 0 181.37 230.283">
  <g id="Group_774" data-name="Group 774" transform="translate(-97 -520.606)">
    <g id="Group_715" data-name="Group 715" transform="translate(-5288 5897)">
      <path id="Path_107" data-name="Path 107" d="M208.441,551.561c.088,9.081,2.511,74.455,52.834,86.249,50.349-11.8,52.75-77.168,52.837-86.249-26.895-2.509-48.271-25.248-52.837-30.455C256.709,526.314,235.335,549.052,208.441,551.561Z" transform="translate(5199.229 -5858.196)" fill="#ee1d23"/>
      <path id="Path_108" data-name="Path 108" d="M258.056,650.941l-1-.23c-87.9-20.218-86.11-138.692-86.082-139.886l.089-4.047,4.038-.291c44.258-3.22,79.143-45.636,79.491-46.064l3.458-4.285,3.467,4.283c.346.43,34.95,42.824,79.492,46.066l4.038.291.091,4.048c.027,1.2,1.644,119.707-86.084,139.886Zm-85.222-142.48-.052,2.4c-.028,1.182-1.8,118.194,84.681,138.085l.593.137.593-.137c86.312-19.852,84.71-136.9,84.684-138.084l-.054-2.406-2.4-.173c-45.331-3.3-80.418-46.3-80.768-46.733l-2.059-2.543L256,461.559c-.353.436-35.734,43.453-80.763,46.729Z" transform="translate(5214.03 -5832.532)" fill="#5e5e5e"/>
      <path id="Path_109" data-name="Path 109" d="M278.315,639.665l-.458-.1c-56.638-13.028-55.616-89.79-55.6-90.563l.042-1.878,1.871-.135c29.4-2.137,52.31-30.129,52.538-30.411l1.605-1.988,1.6,1.987c.227.281,23.2,28.278,52.539,30.412l1.872.135.042,1.877c.016.774,1.039,77.535-55.6,90.563ZM224.069,548.8l-.005.234c-.017.759-1.023,76.06,54.193,88.762l.057.013.062-.014c55.212-12.7,54.206-88,54.189-88.762l-.005-.234-.232-.018C302.2,546.6,278.747,518,278.514,517.709l-.2-.247-.2.247c-.231.288-23.6,28.882-53.812,31.078Z" transform="translate(5193.771 -5855.621)" fill="#5e5e5e"/>
      <rect id="Rectangle_57" data-name="Rectangle 57" width="100.262" height="1.806" transform="translate(5421.868 -5271.67)" fill="#5e5e5e"/>
      <g id="Group_80" data-name="Group 80" transform="translate(5481.615 -5263.908)">
        <path id="Path_121" data-name="Path 121" d="M397.64,672.7c0,3.877.025,6.7-.014,9.521a2.292,2.292,0,0,0,1.077,2.1,40.891,40.891,0,0,1,15.173,19.986,39.922,39.922,0,0,1,1.661,21.186c-2.552,13.409-10.006,23.255-22.057,29.527a38.433,38.433,0,0,1-23.577,4.138c-16.42-2.325-27.72-11.343-33.884-26.611a38.555,38.555,0,0,1-1.64-23.32,41.089,41.089,0,0,1,16.6-24.949,2.154,2.154,0,0,0,.91-2.015c.011-5.049-.079-10.1.109-15.147a27.8,27.8,0,0,1,3.339-12.781,19.715,19.715,0,0,1,13.914-10.121,27,27,0,0,1,15.738,1.156c6.189,2.5,9.616,7.289,11.429,13.5C397.849,663.761,397.663,668.761,397.64,672.7Z" transform="translate(-332.41 -642.664)" fill="#fff"/>
        <path id="Path_122" data-name="Path 122" d="M373.633,723.572h-1.188c-3.483,0-3.483,0-3.487-3.519,0-3.038-.021-3.113-2.929-2.44a31.594,31.594,0,0,0-16.579,10.07c-.765.849-.549,1.32.359,1.8,1.18.619,2.329,1.3,3.487,1.96.625.358.938.707.434,1.511-1.258,2.007-2.451,4.06-3.56,6.153-.507.956-1.052.854-1.784.428-1.154-.672-2.314-1.331-3.462-2.012-.785-.466-1.2-.321-1.515.6a31.759,31.759,0,0,0-.03,20.945c.35,1.033.843,1.093,1.635.641,1.158-.661,2.312-1.332,3.452-2.023a1.032,1.032,0,0,1,1.686.449c1.128,2.029,2.3,4.033,3.485,6.03.487.822.337,1.316-.537,1.758-1.188.6-2.289,1.373-3.469,1.992-.887.465-.84.91-.232,1.584a35.853,35.853,0,0,0,5.942,5.344,33.69,33.69,0,0,0,11.44,5.068c1.9.474,2.176.23,2.173-1.693,0-1.089.028-2.179-.007-3.267-.031-.955.384-1.323,1.332-1.308,2.177.033,4.356.039,6.533-.013,1.181-.028,1.586.493,1.535,1.614-.053,1.185.033,2.377-.022,3.563-.051,1.105.463,1.45,1.447,1.2,1.433-.362,2.88-.7,4.275-1.178a31.532,31.532,0,0,0,13.718-9.277c.691-.792.569-1.239-.28-1.711-1.121-.624-2.192-1.342-3.332-1.925-.86-.439-1.041-.954-.56-1.775,1.175-2,2.333-4.018,3.494-6.03a1.059,1.059,0,0,1,1.714-.422c1,.633,2.049,1.191,3.068,1.8,1.448.862,1.621.814,2.142-.8a32.481,32.481,0,0,0-.035-20.273c-.368-1.166-.938-1.48-2.041-.7-1,.71-2.143,1.226-3.189,1.881-.766.48-1.24.289-1.662-.458-1.142-2.02-2.294-4.036-3.49-6.024a1.07,1.07,0,0,1,.426-1.715c1.157-.664,2.325-1.309,3.487-1.964.785-.443,1.048-.878.315-1.708a32.716,32.716,0,0,0-18.273-10.573c-.827-.174-1.22.1-1.209.968.018,1.436-.022,2.871.006,4.306.017.826-.332,1.165-1.149,1.146C376.009,723.547,374.821,723.568,373.633,723.572Z" transform="translate(-335.691 -671.711)" fill="#ee1d23"/>
        <g id="Group_79" data-name="Group 79">
          <path id="Path_123" data-name="Path 123" d="M374.832,759.868a40.238,40.238,0,0,1-5.643-.4c-16.629-2.355-28.269-11.5-34.6-27.168a38.013,38.013,0,0,1-2.772-14.347,43.278,43.278,0,0,1,1.089-9.509,42.18,42.18,0,0,1,16.956-25.481c.424-.308.534-.572.536-1.285,0-.317,0-.633,0-.951q0-1.552-.007-3.1,0-1.517-.006-3.058c0-2.674.021-5.386.122-8.067a28.471,28.471,0,0,1,3.454-13.19,20.636,20.636,0,0,1,14.526-10.565,27.729,27.729,0,0,1,16.253,1.206c5.984,2.418,9.9,7.024,11.956,14.082a39.466,39.466,0,0,1,1.273,11.114c0,.662-.006,1.3-.012,1.922l-.008,1.045,0,3.219c0,.88,0,1.709,0,2.506,0,1.328,0,2.568-.022,3.806v.045a1.393,1.393,0,0,0,.7,1.312,41.927,41.927,0,0,1,15.5,20.419,40.916,40.916,0,0,1,1.7,21.657c-2.585,13.579-10.164,23.725-22.528,30.159A39.628,39.628,0,0,1,374.832,759.868Zm-41.2-41.917a36.247,36.247,0,0,0,2.64,13.671c6.068,15.031,17.229,23.8,33.173,26.055a37.558,37.558,0,0,0,23.033-4.045c11.848-6.166,19.112-15.887,21.587-28.9a39.125,39.125,0,0,0-1.626-20.713,40.152,40.152,0,0,0-14.846-19.555,3.186,3.186,0,0,1-1.456-2.788v-.065c.018-1.228.022-2.457.022-3.775,0-.8,0-1.627,0-2.506l0-3.232.009-1.053c.005-.606.012-1.235.012-1.884a37.964,37.964,0,0,0-1.2-10.63c-1.9-6.493-5.461-10.717-10.9-12.914a26,26,0,0,0-15.223-1.108,18.9,18.9,0,0,0-13.3,9.678,26.7,26.7,0,0,0-3.225,12.372c-.1,2.656-.121,5.351-.12,8.01,0,1.021,0,2.036.006,3.042q0,1.555.006,3.111,0,.477,0,.952a3.038,3.038,0,0,1-1.283,2.744,40.417,40.417,0,0,0-16.254,24.415A41.494,41.494,0,0,0,333.628,717.951Zm35,31.954a6.234,6.234,0,0,1-1.452-.234,34.417,34.417,0,0,1-11.742-5.207,36.571,36.571,0,0,1-6.092-5.477,2.038,2.038,0,0,1-.657-1.678A2,2,0,0,1,349.825,736c.54-.283,1.063-.6,1.586-.917.608-.368,1.237-.748,1.9-1.081a1.268,1.268,0,0,0,.319-.206c-.018-.017-.05-.116-.151-.285-1.122-1.894-2.323-3.937-3.5-6.051a1.058,1.058,0,0,0-.177-.252c-.016.016-.1.047-.252.136-1.147.7-2.308,1.37-3.473,2.035a2.081,2.081,0,0,1-1.778.287,2.194,2.194,0,0,1-1.16-1.424,32.821,32.821,0,0,1,.029-21.523,2.061,2.061,0,0,1,1.133-1.384,2.035,2.035,0,0,1,1.7.295c.743.441,1.492.873,2.24,1.306l1.214.7a1.757,1.757,0,0,0,.384.183c.007-.026.068-.1.148-.254,1.1-2.065,2.3-4.154,3.593-6.208a1.4,1.4,0,0,0,.073-.129c-.042-.029-.1-.068-.19-.119l-.75-.431c-.884-.509-1.8-1.036-2.708-1.514a1.833,1.833,0,0,1-.61-3.2,32.653,32.653,0,0,1,17.046-10.345c1.6-.37,2.568-.595,3.3-.013s.731,1.557.733,3.332a7.694,7.694,0,0,0,.177,2.441,7.55,7.55,0,0,0,2.408.176l2.119-.005c.884,0,1.769-.011,2.653.008a.777.777,0,0,0,.214-.01,1.129,1.129,0,0,0,.012-.214c-.016-.79-.012-1.58-.006-2.37,0-.648.008-1.3,0-1.944a1.9,1.9,0,0,1,.607-1.575,1.982,1.982,0,0,1,1.69-.288,33.77,33.77,0,0,1,18.765,10.859,1.8,1.8,0,0,1-.548,3.093l-1.247.7c-.745.418-1.491.835-2.233,1.261a.8.8,0,0,0-.24.182,1.685,1.685,0,0,0,.137.285c1.242,2.063,2.417,4.125,3.5,6.046a1.232,1.232,0,0,0,.182.26c.018-.018.094-.047.215-.123.448-.28.913-.537,1.378-.794a18.139,18.139,0,0,0,1.769-1.059,1.995,1.995,0,0,1,3.422,1.163,33.684,33.684,0,0,1,1.653,11.858,34.245,34.245,0,0,1-1.62,8.968c-.256.791-.52,1.61-1.258,1.889s-1.448-.146-2.2-.6c-.391-.232-.787-.458-1.183-.684-.641-.366-1.283-.732-1.906-1.125a.85.85,0,0,0-.283-.133,2.323,2.323,0,0,0-.166.241l-.631,1.094q-1.427,2.474-2.867,4.942a1.015,1.015,0,0,0-.136.313,2.964,2.964,0,0,0,.329.2c.7.356,1.367.76,2.014,1.15.446.269.892.537,1.346.789a2.08,2.08,0,0,1,1.169,1.378,2.118,2.118,0,0,1-.649,1.718,32.573,32.573,0,0,1-14.1,9.537c-1.22.42-2.477.733-3.693,1.036l-.654.164a2.088,2.088,0,0,1-1.914-.278,2.114,2.114,0,0,1-.657-1.842c.027-.581.018-1.162.01-1.744-.008-.606-.016-1.212.012-1.817.021-.481-.071-.59-.072-.591a.98.98,0,0,0-.54-.079c-1.96.047-4.049.052-6.568.013a.835.835,0,0,0-.4.045,2.249,2.249,0,0,0-.018.332c.025.744.019,1.489.013,2.233,0,.354-.006.707-.005,1.061,0,1.036-.052,1.937-.721,2.46A1.752,1.752,0,0,1,368.628,749.9Zm-18.054-12.256c.029.036.065.079.109.129a34.756,34.756,0,0,0,5.793,5.211,32.625,32.625,0,0,0,11.138,4.93,5.06,5.06,0,0,0,.993.182,5.422,5.422,0,0,0,.058-1c0-.359,0-.718.005-1.077,0-.721.012-1.441-.011-2.161a2.145,2.145,0,0,1,.54-1.663,2.176,2.176,0,0,1,1.707-.578c2.5.037,4.56.033,6.5-.013a2.443,2.443,0,0,1,1.872.622,2.471,2.471,0,0,1,.586,1.936c-.025.569-.017,1.14-.01,1.711.009.618.017,1.236-.012,1.852a.217.217,0,1,0,.324.284l.658-.165c1.179-.293,2.4-.6,3.543-.991a30.8,30.8,0,0,0,13.331-9.017,2.284,2.284,0,0,0,.162-.205,2.194,2.194,0,0,0-.2-.123c-.472-.263-.936-.542-1.4-.822-.649-.391-1.263-.761-1.9-1.088a2.22,2.22,0,0,1-1.245-1.318,2.137,2.137,0,0,1,.317-1.719q1.441-2.458,2.86-4.932l.63-1.093a1.94,1.94,0,0,1,2.978-.734c.6.379,1.218.732,1.837,1.084.4.231.81.463,1.211.7.115.068.387.23.6.336.06-.147.134-.359.223-.633A32.405,32.405,0,0,0,405.3,718.8a31.917,31.917,0,0,0-1.571-11.23,1.843,1.843,0,0,0-.21-.483,1.777,1.777,0,0,0-.447.25,20.075,20.075,0,0,1-1.941,1.166c-.434.24-.87.479-1.29.743a2.051,2.051,0,0,1-1.631.35,2.127,2.127,0,0,1-1.3-1.13c-1.079-1.909-2.248-3.958-3.477-6a2.162,2.162,0,0,1-.335-1.681,2.117,2.117,0,0,1,1.087-1.283q1.121-.643,2.25-1.271l1.242-.7a2.418,2.418,0,0,0,.226-.142,2.036,2.036,0,0,0-.145-.182,32.008,32.008,0,0,0-17.782-10.288c-.046-.01-.086-.016-.119-.021,0,.027,0,.059,0,.1.008.659,0,1.317,0,1.976,0,.774-.01,1.549.007,2.323a1.842,1.842,0,0,1-2.074,2.067c-.865-.021-1.732-.014-2.6-.009l-2.131.005c-3.976-.005-4.386-.418-4.392-4.421a12.622,12.622,0,0,0-.077-1.885h0a11.747,11.747,0,0,0-1.745.324,30.463,30.463,0,0,0-16.111,9.794,2.283,2.283,0,0,0-.177.221,2.42,2.42,0,0,0,.284.17c.943.495,1.872,1.03,2.771,1.549l.745.428a2.1,2.1,0,0,1,1.094,1.231,1.953,1.953,0,0,1-.344,1.544c-1.264,2.016-2.451,4.067-3.526,6.1a2.121,2.121,0,0,1-1.26,1.157,2.3,2.3,0,0,1-1.777-.373l-1.208-.7c-.755-.436-1.511-.872-2.26-1.318-.05-.029-.092-.052-.127-.07-.021.047-.045.108-.071.187a31.052,31.052,0,0,0-.029,20.365.182.182,0,1,0,.332.145q1.727-.984,3.432-2.01a1.909,1.909,0,0,1,2.943.783c1.165,2.1,2.359,4.125,3.473,6.007a2.144,2.144,0,0,1,.335,1.726,2.193,2.193,0,0,1-1.242,1.3c-.6.3-1.169.648-1.775,1.014-.554.336-1.109.67-1.681.971Zm3.119-36.526Zm33.261-22.154a3.357,3.357,0,0,1-.967-.17,40.016,40.016,0,0,0-21.459-.576c-.22.054-.441.1-.662.149s-.426.092-.638.144c-1.374.335-2.131.521-2.768.008s-.624-1.358-.592-2.75c.027-1.2.016-2.4,0-3.594a45.772,45.772,0,0,1,.526-9.13c1.336-6.989,5.848-11.159,12.379-11.441a22.513,22.513,0,0,1,6.9.491c4.162,1.112,6.808,4.067,8.091,9.032a33.679,33.679,0,0,1,.751,8.28l.01,1.233,0,1.819c0,1.469-.005,2.938.007,4.405a2.119,2.119,0,0,1-.639,1.813A1.532,1.532,0,0,1,386.953,678.968Zm-12.65-3.744a41.435,41.435,0,0,1,12.214,1.846c.08.025.147.044.2.057,0-.065,0-.145,0-.244-.012-1.474-.01-2.949-.007-4.423v-1.815l-.01-1.223a31.816,31.816,0,0,0-.694-7.84c-1.12-4.338-3.284-6.8-6.808-7.739a21.06,21.06,0,0,0-6.353-.431c-7.7.333-10,6.393-10.682,9.976a44.48,44.48,0,0,0-.495,8.772c.013,1.218.024,2.436,0,3.653-.008.391-.02.888,0,1.2.284-.046.724-.153,1.126-.251.227-.056.457-.105.687-.154.206-.045.411-.09.616-.139A43.166,43.166,0,0,1,374.3,675.225Z" transform="translate(-331.821 -642.071)" fill="#5e5e5e"/>
        </g>
        <path id="Path_124" data-name="Path 124" d="M397.772,771.024c1.186,0,2.373.008,3.56,0,1.937-.018,2.5-.74,2.028-2.6-.787-3.061-1.567-6.124-2.4-9.173a1.485,1.485,0,0,1,.619-1.852,6.068,6.068,0,0,0,.773-9.131,6.148,6.148,0,1,0-8.109,9.177,1.393,1.393,0,0,1,.589,1.73c-.842,3.1-1.646,6.2-2.444,9.314-.449,1.751.149,2.508,1.97,2.53C395.5,771.035,396.635,771.024,397.772,771.024Z" transform="translate(-355.474 -683.259)" fill="#fff"/>
      </g>
    </g>
  </g>
</svg>
