<svg id="Component_1_79" data-name="Component 1 – 79" xmlns="http://www.w3.org/2000/svg" width="20.695" height="20.694" viewBox="0 0 20.695 20.694">
  <g id="Group_431" data-name="Group 431" transform="translate(0.986 0.986)">
    <path id="Path_101" data-name="Path 101" d="M151.762,135.222h-3.332a3.511,3.511,0,0,1-3.507-3.507v-3.332a3.511,3.511,0,0,1,3.507-3.507h3.332a3.511,3.511,0,0,1,3.507,3.507v3.332A3.511,3.511,0,0,1,151.762,135.222Zm-3.332-8.593a1.756,1.756,0,0,0-1.754,1.754v3.332a1.756,1.756,0,0,0,1.754,1.754h3.332a1.756,1.756,0,0,0,1.754-1.754v-3.332a1.756,1.756,0,0,0-1.754-1.754Z" transform="translate(-135.56 -115.513)" fill="#414141"/>
    <path id="Path_102" data-name="Path 102" d="M100.012,83.472H96.68a3.511,3.511,0,0,1-3.508-3.507V76.633a3.511,3.511,0,0,1,3.508-3.507h3.332a3.511,3.511,0,0,1,3.508,3.507v3.332A3.511,3.511,0,0,1,100.012,83.472ZM96.68,74.879a1.756,1.756,0,0,0-1.754,1.754v3.332a1.756,1.756,0,0,0,1.754,1.754h3.332a1.756,1.756,0,0,0,1.754-1.754V76.633a1.756,1.756,0,0,0-1.754-1.754Z" transform="translate(-83.81 -74.111)" fill="#414141"/>
    <path id="Path_103" data-name="Path 103" d="M100.012,135.222H96.68a3.512,3.512,0,0,1-3.508-3.508v-3.332a3.512,3.512,0,0,1,3.508-3.508h3.332a3.512,3.512,0,0,1,3.508,3.508v3.332A3.512,3.512,0,0,1,100.012,135.222Zm-3.332-8.594a1.756,1.756,0,0,0-1.754,1.754v3.332a1.756,1.756,0,0,0,1.754,1.754h3.332a1.756,1.756,0,0,0,1.754-1.754v-3.332a1.756,1.756,0,0,0-1.754-1.754Z" transform="translate(-94.157 -115.514)" fill="#414141"/>
    <path id="Path_104" data-name="Path 104" d="M6.84,10.347H3.508A3.512,3.512,0,0,1,0,6.84V3.508A3.512,3.512,0,0,1,3.508,0H6.84a3.509,3.509,0,0,1,3.215,2.1.877.877,0,1,1-1.607.7A1.755,1.755,0,0,0,6.84,1.754H3.508A1.756,1.756,0,0,0,1.754,3.508V6.84A1.756,1.756,0,0,0,3.508,8.594H6.84A1.756,1.756,0,0,0,8.594,6.84a.877.877,0,0,1,1.754,0A3.512,3.512,0,0,1,6.84,10.347Z" transform="translate(9.362 9.362) rotate(180)" fill="#ee1d23"/>
  </g>
</svg>
